<svg id="Capa_1" enable-background="new 0 0 511.961 511.961" height="512" viewBox="0 0 511.961 511.961" width="512" xmlns="http://www.w3.org/2000/svg" xmlns:xlink="http://www.w3.org/1999/xlink"><linearGradient id="SVGID_1_" gradientUnits="userSpaceOnUse" x1="255.98" x2="255.98" y1="511.818" y2=".143"><stop offset="0" stop-color="#fd5900"/><stop offset="1" stop-color="#ffde00"/></linearGradient><g><g><path d="m465.259 400.744c30.468-43.714 46.702-94.422 46.702-145.131s-16.234-101.418-46.702-145.131c4.884-4.884 9.081-9.081 13.965-13.965 2.93-2.93 4.395-6.768 4.395-10.605s-1.465-7.676-4.395-10.605l-42.437-42.437c-2.93-2.93-6.768-4.395-10.605-4.395s-7.676 1.465-10.605 4.395c-4.885 4.885-9.082 9.082-13.967 13.967-43.714-30.463-94.422-46.694-145.13-46.694s-101.416 16.231-145.129 46.692c-4.885-4.885-9.082-9.082-13.967-13.967-2.93-2.93-6.768-4.395-10.605-4.395s-7.676 1.465-10.605 4.395l-42.438 42.437c-2.93 2.93-4.395 6.768-4.395 10.605s1.465 7.676 4.395 10.605l13.965 13.965c-30.467 43.715-47.701 94.424-47.701 145.132 0 50.709 17.234 101.417 47.702 145.131l-13.965 13.965c-2.93 2.93-4.395 6.768-4.395 10.605s1.465 7.676 4.395 10.605l42.437 42.437c2.849 2.849 6.651 4.395 10.605 4.395 3.95 0 7.753-1.542 10.605-4.395l13.965-13.965c45.824 31.933 100.871 47.426 145.131 47.426 44.109 0 99.184-15.407 145.131-47.426l13.965 13.965c2.849 2.849 6.651 4.395 10.605 4.395 3.95 0 7.753-1.542 10.605-4.395l42.437-42.437c2.93-2.93 4.395-6.768 4.395-10.605s-1.465-7.676-4.395-10.605zm-39.076-336.059c7.424 7.423 13.802 13.802 21.226 21.226-10.397 10.397-75.447 75.447-85.913 85.913-6.248-7.814-13.318-14.902-21.226-21.226 10.397-10.397 75.447-75.448 85.913-85.913zm-64.703 190.927c0 57.889-47.108 105-105 105-57.889 0-105-47.108-105-105 0-57.889 47.108-105 105-105 57.89 0 105 47.108 105 105zm-105-225.456c42.992 0 85.984 13.427 123.527 38.282-7.946 7.946-57.697 57.697-65.696 65.696-18.084-8.649-37.541-13.522-57.83-13.522-20.288 0-39.745 4.872-57.83 13.522-7.946-7.946-57.697-57.697-65.696-65.696 37.542-24.854 80.534-38.282 123.525-38.282zm-169.702 34.529c10.397 10.397 75.447 75.447 85.913 85.913-7.814 6.248-14.902 13.318-21.226 21.226-10.397-10.397-75.447-75.447-85.913-85.913 7.424-7.424 13.803-13.803 21.226-21.226zm-56.754 190.927c0-42.994 14.427-85.988 39.282-123.527l65.696 65.696c-8.649 18.083-13.522 37.541-13.522 57.83 0 20.287 4.872 39.745 13.522 57.83-7.946 7.946-57.697 57.697-65.696 65.696-24.854-37.536-39.282-80.531-39.282-123.525zm56.754 190.928-21.226-21.226 85.913-85.913c6.248 7.814 13.318 14.902 21.226 21.226-10.397 10.397-75.447 75.447-85.913 85.913zm169.702 34.529c-42.992 0-85.984-13.427-123.527-38.282l65.696-65.696c18.084 8.649 37.541 13.522 57.83 13.522 20.287 0 39.745-4.872 57.83-13.522 7.946 7.946 57.697 57.697 65.696 65.696-37.541 24.854-80.533 38.282-123.525 38.282zm169.703-34.529-85.913-85.913c7.814-6.248 14.902-13.318 21.226-21.226l85.913 85.913c-7.424 7.424-13.803 13.803-21.226 21.226zm17.471-67.401c-7.946-7.947-57.697-57.697-65.696-65.696 8.65-18.084 13.522-37.541 13.522-57.83 0-20.288-4.872-39.745-13.522-57.83l65.696-65.696c24.855 37.54 38.282 80.533 38.282 123.527s-13.427 85.985-38.282 123.525z" fill="url(#SVGID_1_)"/></g></g></svg>